<svg xmlns="http://www.w3.org/2000/svg" version="1.1" xmlns:xlink="http://www.w3.org/1999/xlink" width="512" height="512" x="0" y="0" viewBox="0 0 512 512" style="enable-background:new 0 0 512 512" xml:space="preserve" class=""><g><linearGradient id="a" x1="0" x2="512" y1="-19686" y2="-19686" gradientTransform="matrix(1 0 0 -1 0 -19430)" gradientUnits="userSpaceOnUse"><stop stop-opacity="1" stop-color="#00f38d" offset="0"></stop><stop stop-opacity="1" stop-color="#07de01" offset="1"></stop></linearGradient><path fill="url(#a)" d="M512 256c0 141.387-114.613 256-256 256S0 397.387 0 256 114.613 0 256 0s256 114.613 256 256zm0 0" opacity="1" data-original="url(#a)" class=""></path><path fill="#ffffff" d="M314.203 247.938c23.516-17.711 38.75-45.852 38.75-77.489 0-53.457-43.492-96.949-96.953-96.949-53.457 0-96.95 43.492-96.95 96.95 0 31.636 15.231 59.777 38.747 77.488C134.836 271.57 89.902 332.382 89.902 403.5h30c0-75.047 61.055-136.098 136.102-136.098 75.043 0 136.098 61.051 136.098 136.098h30c-.004-71.117-44.934-131.93-107.899-155.563zm-125.152-77.489c0-36.918 30.031-66.949 66.949-66.949s66.95 30.031 66.95 66.95-30.032 66.952-66.95 66.952-66.95-30.035-66.95-66.953zm0 0" opacity="1" data-original="#ffffff"></path></g></svg>